<?xml version="1.0" encoding="UTF-8" standalone="no"?>
<svg
   xmlns:dc="http://purl.org/dc/elements/1.1/"
   xmlns:cc="http://creativecommons.org/ns#"
   xmlns:rdf="http://www.w3.org/1999/02/22-rdf-syntax-ns#"
   xmlns:svg="http://www.w3.org/2000/svg"
   xmlns="http://www.w3.org/2000/svg"
   viewBox="0 0 235.3125 130.5125"
   height="130.5125"
   width="235.3125"
   xml:space="preserve"
   version="1.1"
   id="svg2"><metadata
     id="metadata8"><rdf:RDF><cc:Work
         rdf:about=""><dc:format>image/svg+xml</dc:format><dc:type
           rdf:resource="http://purl.org/dc/dcmitype/StillImage" /></cc:Work></rdf:RDF></metadata><defs
     id="defs6" /><g
     transform="matrix(1.25,0,0,-1.25,0,130.5125)"
     id="g10"><g
       transform="scale(0.1,0.1)"
       id="g12"><path
         id="path14"
         style="fill:#151922;fill-opacity:1;fill-rule:nonzero;stroke:none"
         d="M 1882.46,646.559 36.8516,475.48 0,872.98 l 1845.63,171.07 36.83,-397.491" /><path
         id="path16"
         style="fill:#52c2f1;fill-opacity:1;fill-rule:nonzero;stroke:none"
         d="M 153.98,513.504 62.8164,505.035 31.2461,845.633 168.984,858.402 c 86.645,8.028 139.61,-40.097 146.059,-109.718 6.449,-69.633 -36.902,-125.164 -123.551,-133.192 l -46.57,-4.324 9.058,-97.664" /><path
         id="path18"
         style="fill:#f3681f;fill-opacity:1;fill-rule:nonzero;stroke:none"
         d="m 687.105,906.418 238.903,22.145 7.105,-76.633 -147.754,-13.684 5.207,-56.094 123.211,11.411 6.731,-72.618 -123.207,-11.422 5.433,-58.593 154.778,14.34 7.078,-76.625 -245.918,-22.801 -31.567,340.574" /><path
         id="path20"
         style="fill:#a57ac4;fill-opacity:1;fill-rule:nonzero;stroke:none"
         d="m 1046.16,862.406 -90.152,-8.351 -7.102,76.636 271.474,25.157 7.1,-76.621 -90.17,-8.352 24.49,-263.953 -91.16,-8.449 -24.48,263.933" /><path
         id="path22"
         style="fill:#fee533;fill-opacity:1;fill-rule:nonzero;stroke:none"
         d="m 1367.02,625.945 -91.17,-8.453 -31.56,340.582 137.76,12.762 c 86.64,8.043 139.45,-38.594 145.9,-108.211 4.18,-45.086 -14.06,-82.629 -52.91,-104.937 l 81.82,-114.145 -98.71,-9.145 -69.96,101.106 -31.06,-2.891 9.89,-106.668" /><path
         id="path24"
         style="fill:#f03a9a;fill-opacity:1;fill-rule:nonzero;stroke:none"
         d="m 1495.71,981.379 100.18,9.289 78.67,-118.488 55.57,130.93 95.66,8.86 -99.58,-217.345 12.44,-134.246 -91.15,-8.438 -12.22,131.735 -139.57,197.703" /><path
         id="path26"
         style="fill:#87cf32;fill-opacity:1;fill-rule:nonzero;stroke:none"
         d="m 679.695,733.949 c 8.95,-96.543 -62.062,-182.07 -158.597,-191.004 -96.543,-8.965 -182.055,62.051 -191.004,158.602 -8.946,96.523 62.062,182.035 158.597,190.976 96.536,8.965 182.051,-62.043 191.004,-158.574" /><path
         id="path28"
         style="fill:#151922;fill-opacity:1;fill-rule:nonzero;stroke:none"
         d="M 1848.96,0 20.1484,76.6094 36.8516,475.48 1865.66,398.84 1848.96,0" /><path
         id="path30"
         style="fill:#fee533;fill-opacity:1;fill-rule:nonzero;stroke:none"
         d="m 593.863,77.4375 c -1.66,-2.918 -4.746,-2.8008 -6.168,0.2852 l -150.004,352.1523 99.711,-4.164 64.766,-162.324 76.074,156.422 95.074,-4.004 L 593.863,77.4375" /><path
         id="path32"
         style="fill:#f3681f;fill-opacity:1;fill-rule:nonzero;stroke:none"
         d="m 1110.23,401.703 93.54,-3.926 -14.32,-341.734 -93.53,3.914 14.31,341.746" /><path
         id="path34"
         style="fill:#87cf32;fill-opacity:1;fill-rule:nonzero;stroke:none"
         d="m 1396.41,42.8281 c -98.19,4.1211 -178.93,79.9919 -174.61,183.0199 4.31,103.047 90.58,171.422 184.14,167.5 75.56,-3.176 120.51,-36.262 148.02,-79.719 L 1481.6,269.84 c -12.52,20.656 -33.24,42.18 -77.46,44.043 -51.39,2.14 -84.49,-38.262 -86.74,-92.039 -2.26,-53.75 28.36,-97.344 81.78,-99.602 45.25,-1.883 68.2,17.278 84.24,43.821 l 70.08,-48.262 C 1516.66,62.4688 1467.32,39.8594 1396.41,42.8281" /><path
         id="path36"
         style="fill:#a57ac4;fill-opacity:1;fill-rule:nonzero;stroke:none"
         d="m 1586.04,381.785 245.13,-10.293 -3.2,-76.894 -151.62,6.355 -2.35,-56.297 126.45,-5.304 -3.07,-72.852 -126.44,5.273 -2.46,-58.777 158.82,-6.652 -3.22,-76.9026 -252.36,10.5781 14.32,341.7655" /><path
         id="path38"
         style="fill:#52c2f1;fill-opacity:1;fill-rule:nonzero;stroke:none"
         d="M 1077.11,231.922 C 1073.05,135.055 991.25,59.8203 894.371,63.8633 797.5,67.9258 722.258,149.734 726.313,246.609 c 4.058,96.875 85.875,172.098 182.75,168.055 96.877,-4.07 172.087,-85.867 168.047,-182.742" /><path
         id="path40"
         style="fill:#f03a9a;fill-opacity:1;fill-rule:nonzero;stroke:none"
         d="m 49.1641,103.504 69.9219,-2.93 10.019,239.141 -69.9253,2.937 -10.0156,-239.148" /><path
         id="path42"
         style="fill:#f03a9a;fill-opacity:1;fill-rule:nonzero;stroke:none"
         d="m 169.887,338.004 69.922,-2.918 -1.286,-30.762 c 16.473,25.215 42.809,35.321 76.383,33.914 53.129,-2.226 88.649,-40.84 85.977,-104.461 l -6.063,-144.7653 -69.925,2.9297 5.851,139.8636 c 1.113,26.57 -12.195,43.242 -40.867,44.453 -33.563,1.394 -53.199,-15.996 -54.688,-51.66 l -5.394,-128.6644 -69.934,2.9219 10.024,239.1485" /></g></g></svg>