<?xml version="1.0" standalone="no"?>
<!DOCTYPE svg PUBLIC "-//W3C//DTD SVG 20010904//EN"
 "http://www.w3.org/TR/2001/REC-SVG-20010904/DTD/svg10.dtd">
<svg version="1.0" xmlns="http://www.w3.org/2000/svg"
 width="2986.000000pt" height="403.000000pt" viewBox="0 0 2986.000000 403.000000"
 preserveAspectRatio="xMidYMid meet">
<metadata>
Created by potrace 1.12, written by Peter Selinger 2001-2015
</metadata>
<g transform="translate(0.000000,403.000000) scale(0.100000,-0.100000)"
fill="#000000" stroke="none">
<path d="M3745 3828 c-2013 -89 -3660 -161 -3661 -162 -1 0 15 -356 34 -791
l35 -790 -43 -808 c-24 -444 -41 -809 -39 -812 5 -4 7342 -406 7346 -402 6 6
86 1587 81 1593 -4 3 -1633 94 -3620 202 -1987 108 -3615 197 -3617 199 -2 2
-2 5 1 8 3 3 1654 78 3668 165 2015 88 3665 162 3668 164 4 5 -55 1435 -64
1534 l-6 62 -61 -1 c-34 -1 -1709 -73 -3722 -161z m3657 -40 c-22 -40 -121
-231 -221 -424 l-181 -351 10 -199 c5 -109 10 -229 10 -266 0 -81 16 -75 -201
-82 l-155 -6 -11 265 -11 265 -260 410 -261 410 48 0 c26 0 116 3 198 7 l151
6 147 -248 148 -249 111 230 c62 126 118 243 125 261 l13 32 92 4 c50 1 135 4
189 5 l98 2 -39 -72z m-1560 -12 c98 -21 175 -62 244 -131 100 -99 142 -219
132 -380 -9 -136 -71 -246 -180 -320 l-48 -32 150 -233 c83 -128 149 -234 147
-236 -5 -5 -381 -22 -389 -18 -4 3 -64 97 -134 209 l-127 205 -64 0 -65 0 6
-142 c4 -79 9 -175 12 -215 l6 -72 -44 -5 c-24 -3 -107 -8 -185 -11 l-141 -5
-6 112 c-12 199 -56 1261 -54 1263 5 4 422 22 553 23 71 1 147 -4 187 -12z
m-837 -128 c4 -62 5 -131 3 -153 l-3 -40 -174 -8 c-96 -4 -176 -9 -178 -11 -4
-3 31 -857 40 -1002 l4 -61 -179 -8 c-99 -3 -181 -5 -182 -3 -2 1 -11 185 -20
408 -9 223 -20 461 -23 529 l-6 124 -182 -7 -182 -7 -6 147 c-4 81 -5 149 -3
152 3 3 832 43 1048 51 l36 1 7 -112z m-1191 1 c3 -34 6 -103 6 -154 l0 -92
-167 -7 c-93 -3 -225 -9 -295 -13 l-128 -6 0 -61 c0 -34 3 -85 7 -115 l6 -53
221 6 c122 4 233 9 247 12 l26 5 5 -143 c3 -79 5 -144 4 -145 -1 -2 -112 -8
-247 -14 -134 -6 -245 -12 -247 -14 -2 -1 0 -56 4 -120 l7 -118 191 7 c105 3
245 9 312 13 l121 6 6 -148 c4 -82 5 -150 3 -153 -6 -5 -975 -46 -980 -41 -2
2 -15 285 -30 629 -14 344 -28 650 -31 681 l-4 55 462 21 c254 11 469 21 478
22 13 1 18 -12 23 -60z m-1519 -33 c294 -94 488 -362 487 -672 -1 -270 -149
-511 -387 -629 -112 -55 -182 -70 -325 -69 -109 0 -135 4 -205 28 -304 104
-486 358 -486 676 1 340 230 618 572 690 81 17 255 5 344 -24z m-1360 -51
c146 -31 272 -121 330 -236 35 -67 43 -97 54 -181 27 -205 -65 -391 -238 -482
-90 -47 -178 -66 -335 -74 l-130 -7 2 -60 c1 -33 5 -121 8 -196 l6 -136 -107
-6 c-60 -4 -143 -7 -186 -7 l-77 0 -6 93 c-15 228 -57 1270 -51 1276 7 6 391
27 560 29 56 1 131 -5 170 -13z m1150 -1724 l79 -6 118 -305 c64 -168 121
-314 126 -325 8 -16 38 37 166 293 l157 314 37 -6 c20 -3 106 -8 190 -12 83
-3 152 -7 152 -9 0 -17 -740 -1350 -749 -1350 -8 0 -106 225 -246 565 -128
311 -259 631 -293 713 l-61 147 122 -6 c67 -4 158 -9 202 -13z m1713 -85 c135
-37 287 -134 367 -234 58 -74 119 -190 141 -272 24 -90 25 -272 0 -360 -68
-246 -262 -441 -506 -507 -89 -24 -271 -24 -360 0 -246 67 -438 260 -506 507
-25 89 -25 271 0 359 38 137 131 283 234 366 70 57 218 130 292 144 30 6 64
13 75 15 36 9 209 -3 263 -18z m936 -62 l109 -7 -6 -71 c-4 -39 -21 -345 -38
-681 -18 -335 -33 -611 -34 -613 -3 -4 -360 19 -364 24 -4 4 52 1103 66 1282
l6 84 76 -6 c42 -3 125 -9 185 -12z m1064 -50 c163 -33 304 -116 395 -232 26
-33 47 -65 47 -70 0 -6 -63 -47 -140 -92 l-140 -82 -55 60 c-117 126 -302 155
-446 69 -146 -87 -209 -322 -138 -512 30 -81 113 -164 189 -191 85 -29 219
-26 290 7 56 26 97 60 138 113 l22 29 53 -37 c28 -21 89 -63 134 -94 45 -31
82 -63 83 -70 0 -7 -37 -50 -82 -96 -138 -138 -269 -189 -488 -189 -146 0
-225 17 -345 73 -203 94 -347 272 -391 480 -23 111 -15 271 20 375 75 221 262
396 488 455 93 24 259 26 366 4z m1072 -64 c212 -11 409 -23 439 -26 l54 -6
-7 -146 c-4 -81 -9 -148 -11 -150 -1 -2 -136 4 -299 14 -164 9 -300 13 -303
10 -4 -3 -9 -55 -11 -115 l-4 -108 73 -7 c41 -3 130 -8 199 -11 69 -3 149 -8
179 -11 l54 -6 -7 -136 c-4 -75 -9 -139 -12 -141 -2 -2 -115 1 -250 8 -135 7
-248 11 -250 8 -3 -2 -7 -56 -11 -119 l-6 -115 74 -6 c41 -4 184 -12 318 -19
l244 -12 -7 -150 c-4 -82 -8 -151 -9 -152 -4 -4 -997 53 -1002 57 -3 3 11 291
30 640 19 349 35 653 35 677 l0 42 53 0 c28 0 225 -9 437 -20z m-6362 -75 c2
-1 -9 -209 -23 -461 -14 -253 -25 -465 -25 -473 0 -12 -23 -13 -131 -8 -72 3
-133 8 -136 11 -6 6 32 794 43 895 l6 54 131 -7 c73 -4 133 -9 135 -11z m428
-20 c19 -4 20 -10 16 -67 l-5 -63 45 46 c66 69 136 92 258 87 76 -3 106 -9
150 -30 104 -48 170 -140 191 -265 9 -54 8 -130 -5 -363 -9 -162 -16 -304 -16
-315 0 -20 -4 -20 -132 -13 -72 4 -133 10 -136 13 -3 3 2 136 10 296 11 200
13 303 6 328 -20 74 -79 111 -178 111 -75 0 -116 -16 -157 -63 -42 -48 -50
-93 -65 -397 l-13 -255 -130 4 c-71 2 -133 6 -137 10 -4 3 4 197 17 431 14
234 25 446 25 472 l0 47 118 -5 c64 -3 126 -7 138 -9z"/>
</g>
</svg>
