<?xml version="1.0" standalone="no"?>
<!DOCTYPE svg PUBLIC "-//W3C//DTD SVG 20010904//EN"
 "http://www.w3.org/TR/2001/REC-SVG-20010904/DTD/svg10.dtd">
<svg version="1.0" xmlns="http://www.w3.org/2000/svg"
 width="829.000000pt" height="828.000000pt" viewBox="0 0 829.000000 828.000000"
 preserveAspectRatio="xMidYMid meet">
<metadata>
Created by potrace 1.12, written by Peter Selinger 2001-2015
</metadata>
<g transform="translate(0.000000,828.000000) scale(0.100000,-0.100000)"
fill="#000000" stroke="none">
<path d="M3860 8277 c-3 -3 -57 -10 -120 -16 -342 -35 -705 -117 -1015 -231
-1196 -439 -2118 -1394 -2515 -2603 -87 -265 -155 -589 -180 -852 -6 -66 -15
-161 -20 -212 -13 -117 -13 -319 0 -436 5 -51 14 -146 20 -212 50 -535 241
-1132 516 -1611 77 -135 210 -336 301 -457 238 -314 566 -632 896 -869 743
-534 1696 -812 2605 -759 313 18 499 45 787 116 1575 387 2788 1681 3074 3280
48 268 56 375 56 730 0 363 -9 467 -61 755 -196 1073 -832 2048 -1735 2660
-571 388 -1166 608 -1879 697 -126 15 -718 32 -730 20z m540 -127 c995 -69
1891 -478 2587 -1181 639 -646 1028 -1450 1139 -2354 22 -183 30 -578 15 -772
-77 -989 -498 -1884 -1212 -2578 -374 -363 -811 -648 -1294 -843 -1158 -466
-2473 -363 -3548 277 -988 590 -1685 1588 -1891 2711 -52 283 -61 393 -61 735
0 247 4 353 18 465 158 1279 887 2380 1998 3020 673 388 1475 573 2249 520z"/>
<path d="M3632 6090 c-338 -73 -606 -284 -758 -595 -286 -588 1 -1285 623
-1508 211 -76 492 -77 711 -3 360 123 632 428 719 808 26 113 23 358 -5 470
-101 406 -396 711 -787 814 -140 37 -367 43 -503 14z"/>
<path d="M6443 4914 c-17 -9 -91 -78 -163 -155 l-132 -139 108 -104 109 -104
132 131 c73 72 140 146 148 163 63 133 -72 272 -202 208z"/>
<path d="M5803 4472 c-28 -10 -67 -30 -86 -45 -19 -15 -313 -314 -653 -666
-679 -704 -640 -656 -797 -960 l-91 -175 138 -133 138 -132 59 29 c94 48 319
179 380 222 32 22 329 321 675 679 675 697 678 701 690 824 11 105 -1 127
-138 255 l-122 115 -70 3 c-49 2 -87 -3 -123 -16z"/>
<path d="M2750 4251 c-92 -69 -231 -216 -290 -308 -90 -137 -144 -268 -182
-438 -18 -79 -21 -138 -25 -467 -6 -409 -1 -474 43 -560 55 -109 161 -187 284
-208 44 -7 257 -10 653 -8 l588 3 102 220 c129 277 289 588 351 683 42 64 323
362 780 830 l91 93 -58 55 c-32 30 -88 76 -123 104 l-66 49 -57 -72 c-188
-236 -455 -395 -759 -453 -106 -21 -316 -23 -427 -5 -297 48 -600 224 -776
449 -29 37 -55 70 -58 74 -4 4 -36 -15 -71 -41z"/>
<path d="M5252 2720 c-218 -225 -254 -253 -492 -390 l-125 -71 260 4 c317 4
340 10 446 116 96 96 111 141 117 341 6 242 28 242 -206 0z"/>
<path d="M4015 2274 c-38 -85 -72 -159 -74 -165 -1 -6 70 26 159 71 l163 82
-84 84 c-46 46 -86 84 -89 84 -3 0 -36 -70 -75 -156z"/>
</g>
</svg>
