<?xml version="1.0" standalone="no"?>
<!DOCTYPE svg PUBLIC "-//W3C//DTD SVG 20010904//EN"
 "http://www.w3.org/TR/2001/REC-SVG-20010904/DTD/svg10.dtd">
<svg version="1.0" xmlns="http://www.w3.org/2000/svg"
 width="828.000000pt" height="827.000000pt" viewBox="0 0 828.000000 827.000000"
 preserveAspectRatio="xMidYMid meet">
<metadata>
Created by potrace 1.12, written by Peter Selinger 2001-2015
</metadata>
<g transform="translate(0.000000,827.000000) scale(0.100000,-0.100000)"
fill="#000000" stroke="none">
<path d="M3800 8259 c-30 -4 -116 -15 -190 -24 -976 -117 -1916 -615 -2575
-1365 -559 -636 -916 -1438 -1005 -2255 -6 -55 -15 -133 -20 -173 -13 -94 -13
-520 0 -614 5 -40 14 -118 20 -173 108 -989 611 -1951 1370 -2618 629 -553
1418 -909 2220 -1002 74 -8 171 -20 215 -25 103 -13 497 -13 600 0 44 5 141
17 215 25 490 57 1026 230 1469 474 1569 865 2401 2615 2081 4377 -230 1268
-1057 2366 -2220 2949 -411 206 -878 347 -1320 400 -74 9 -165 20 -202 25 -80
12 -579 11 -658 -1z m770 -134 c1197 -134 2258 -784 2915 -1785 362 -551 563
-1112 641 -1785 20 -173 23 -617 5 -790 -59 -575 -228 -1118 -495 -1590 -502
-886 -1298 -1539 -2259 -1854 -1055 -346 -2223 -233 -3192 308 -1072 600
-1817 1661 -2009 2861 -40 250 -50 379 -49 660 1 362 31 618 114 953 155 628
463 1211 900 1702 695 782 1660 1256 2718 1335 158 12 546 4 711 -15z"/>
<path d="M3900 6159 c-631 -78 -1175 -411 -1524 -933 -170 -254 -287 -566
-331 -878 -18 -133 -21 -402 -5 -538 91 -775 622 -1451 1354 -1725 125 -46
288 -88 431 -111 152 -25 468 -25 620 0 456 73 835 262 1159 576 351 341 566
775 626 1264 16 130 13 402 -5 534 -128 914 -822 1631 -1735 1794 -132 23
-464 33 -590 17z m-344 -1087 c22 -14 45 -74 42 -110 -3 -33 -10 -42 -65 -79
-112 -75 -333 -146 -494 -158 -103 -8 -135 2 -154 50 -27 62 -20 91 28 126 91
68 267 136 422 164 78 15 204 19 221 7z m1468 -27 c127 -33 232 -77 310 -129
69 -46 79 -75 52 -140 -20 -49 -51 -59 -155 -51 -161 12 -382 83 -494 158 -55
37 -62 46 -65 79 -3 36 19 94 42 111 21 16 209 -1 310 -28z m-1635 -435 c86
-43 141 -149 126 -240 -17 -100 -123 -190 -225 -190 -59 0 -142 40 -176 86
-91 118 -48 290 86 348 51 22 142 20 189 -4z m1679 4 c136 -56 179 -229 88
-348 -34 -46 -117 -86 -176 -86 -102 0 -208 90 -225 190 -15 90 39 195 124
240 45 24 137 26 189 4z m-1801 -1164 c236 -197 410 -285 643 -326 110 -19
340 -19 450 0 233 41 406 129 644 326 55 46 81 47 124 8 31 -30 28 -54 -15
-126 -83 -141 -260 -297 -427 -376 -185 -89 -330 -121 -551 -121 -82 0 -184 6
-225 14 -254 45 -483 168 -647 346 -74 80 -143 187 -143 221 0 30 48 71 87 73
6 1 33 -17 60 -39z"/>
</g>
</svg>
