<?xml version="1.0" standalone="no"?>
<!DOCTYPE svg PUBLIC "-//W3C//DTD SVG 20010904//EN"
 "http://www.w3.org/TR/2001/REC-SVG-20010904/DTD/svg10.dtd">
<svg version="1.0" xmlns="http://www.w3.org/2000/svg"
 width="828.000000pt" height="827.000000pt" viewBox="0 0 828.000000 827.000000"
 preserveAspectRatio="xMidYMid meet">
<metadata>
Created by potrace 1.12, written by Peter Selinger 2001-2015
</metadata>
<g transform="translate(0.000000,827.000000) scale(0.100000,-0.100000)"
fill="#000000" stroke="none">
<path d="M3860 8267 c-3 -3 -57 -10 -120 -16 -1426 -142 -2668 -1000 -3304
-2281 -210 -423 -338 -853 -403 -1355 -26 -201 -26 -759 0 -960 127 -968 524
-1781 1198 -2453 820 -818 1973 -1259 3117 -1193 313 18 499 45 787 116 735
180 1396 556 1932 1097 168 169 252 264 366 415 455 601 735 1307 819 2068 20
187 17 734 -5 910 -65 500 -186 908 -397 1340 -488 998 -1350 1751 -2411 2106
-243 81 -549 148 -849 186 -126 15 -718 32 -730 20z m542 -127 c877 -60 1694
-395 2355 -965 150 -129 389 -376 509 -525 434 -542 715 -1166 828 -1837 45
-267 51 -352 51 -688 -1 -352 -14 -496 -75 -795 -244 -1208 -1051 -2250 -2165
-2797 -846 -415 -1814 -519 -2730 -292 -1254 310 -2292 1219 -2768 2424 -129
326 -213 669 -259 1050 -20 171 -17 703 5 885 86 691 337 1337 735 1885 248
342 602 692 942 931 752 529 1663 785 2572 724z"/>
<path d="M3195 5814 c-406 -37 -728 -189 -997 -472 -188 -198 -318 -447 -380
-730 -32 -142 -32 -443 0 -588 132 -609 585 -1058 1189 -1181 81 -17 164 -18
998 -18 845 0 916 1 993 18 46 10 85 17 86 15 54 -89 145 -179 228 -226 152
-87 324 -102 514 -46 20 5 23 0 33 -47 23 -108 82 -183 184 -236 45 -23 64
-27 142 -28 80 0 96 3 148 29 70 36 120 89 156 165 37 80 37 192 0 272 -47
100 -132 167 -240 190 -45 10 -50 13 -45 33 20 66 36 158 36 206 0 132 -66
307 -151 403 l-41 47 40 93 c87 198 125 383 125 602 0 181 -19 303 -74 470
-76 228 -193 418 -364 590 -172 171 -362 288 -590 364 -231 76 -210 75 -1130
77 -451 0 -838 0 -860 -2z m686 -427 c19 -12 45 -44 58 -71 l24 -48 -29 -167
-30 -166 230 -3 c126 -1 230 -1 232 0 1 2 16 86 34 188 17 102 39 198 48 214
28 48 66 69 129 74 73 5 117 -22 152 -91 l23 -47 -29 -170 -29 -170 89 0 c101
0 132 -12 174 -66 35 -47 39 -128 7 -171 -48 -65 -99 -82 -236 -83 -83 0 -88
-1 -93 -22 -2 -13 -21 -117 -40 -233 -19 -115 -38 -220 -40 -232 -5 -22 -3
-23 69 -23 117 0 169 -15 209 -60 49 -53 56 -106 25 -167 -39 -80 -58 -87
-221 -93 l-142 -5 -33 -189 c-18 -107 -40 -203 -50 -219 -52 -90 -191 -104
-256 -26 -47 55 -49 88 -16 264 16 88 30 163 30 168 0 4 -103 7 -229 7 -210 0
-230 -1 -235 -17 -3 -10 -19 -99 -36 -198 -33 -193 -48 -228 -110 -260 -70
-36 -169 -9 -210 57 -26 44 -26 96 5 270 14 78 25 144 25 145 0 2 -39 3 -86 3
-99 0 -142 16 -177 64 -32 45 -31 138 1 184 38 53 73 65 203 70 l116 4 42 247
c23 135 41 249 41 252 0 4 -47 8 -104 11 -117 5 -155 21 -193 78 -32 47 -31
123 1 171 40 58 75 69 224 69 l129 0 16 88 c9 48 24 134 33 191 11 65 25 115
38 135 44 65 151 87 217 43z"/>
<path d="M3845 4578 c-3 -18 -23 -133 -44 -255 l-38 -223 231 0 231 0 39 228
c21 125 40 239 43 255 l6 27 -231 0 -231 0 -6 -32z"/>
</g>
</svg>
