<?xml version="1.0" standalone="no"?>
<!DOCTYPE svg PUBLIC "-//W3C//DTD SVG 20010904//EN"
 "http://www.w3.org/TR/2001/REC-SVG-20010904/DTD/svg10.dtd">
<svg version="1.0" xmlns="http://www.w3.org/2000/svg"
 width="397.000000pt" height="396.000000pt" viewBox="0 0 397.000000 396.000000"
 preserveAspectRatio="xMidYMid meet">
<metadata>
Created by potrace 1.12, written by Peter Selinger 2001-2015
</metadata>
<g transform="translate(0.000000,396.000000) scale(0.100000,-0.100000)"
fill="#000000" stroke="none">
<path d="M1590 3035 c-243 -49 -462 -229 -553 -458 -29 -72 -57 -198 -57 -255
0 -34 -5 -42 -44 -72 -126 -94 -212 -263 -223 -435 -10 -182 48 -337 177 -465
86 -87 164 -132 276 -160 73 -19 113 -20 818 -20 814 0 806 0 929 61 159 80
277 225 322 394 20 77 19 230 -1 309 -32 123 -123 259 -223 331 -43 32 -45 35
-62 121 -32 155 -112 278 -239 362 -97 65 -174 87 -314 87 -117 1 -119 1 -155
32 -181 151 -423 214 -651 168z m290 -210 c91 -24 178 -73 250 -142 81 -76
105 -85 180 -65 120 31 256 -4 340 -88 62 -62 91 -134 100 -246 3 -51 12 -100
19 -108 7 -8 36 -28 65 -44 236 -134 283 -447 94 -635 -29 -29 -80 -66 -113
-83 l-60 -29 -770 0 -770 0 -67 33 c-85 42 -148 104 -189 188 -82 167 -30 381
121 491 110 80 110 81 110 174 0 169 50 291 164 405 111 112 231 162 386 163
47 0 110 -6 140 -14z"/>
<path d="M1402 2128 c-18 -18 -14 -98 7 -143 23 -50 72 -100 125 -128 54 -29
174 -30 226 -3 84 44 138 121 147 212 5 50 4 54 -21 65 -22 10 -29 9 -46 -6
-11 -10 -20 -29 -20 -42 0 -36 -24 -85 -56 -115 -55 -51 -120 -61 -190 -29
-50 23 -80 63 -94 127 -6 26 -16 54 -22 61 -13 16 -40 17 -56 1z"/>
<path d="M2096 2118 c-16 -25 -8 -97 15 -141 43 -80 123 -135 213 -144 135
-14 267 90 283 224 6 51 -10 83 -42 83 -22 0 -45 -29 -45 -56 0 -66 -69 -147
-135 -160 -103 -19 -194 46 -210 152 -9 62 -51 84 -79 42z"/>
<path d="M1935 1695 c-64 -63 12 -163 93 -121 47 25 57 75 21 120 -28 35 -80
36 -114 1z"/>
</g>
</svg>
